<svg width="555" height="421" viewBox="0 0 555 421" fill="none" xmlns="http://www.w3.org/2000/svg">
<path d="M554.46 333.344H0V333.598H554.46V333.344Z" fill="#EBEBEB"/>
<path d="M498.903 349.693H462.176V349.947H498.903V349.693Z" fill="#EBEBEB"/>
<path d="M367.296 352.456H357.66V352.71H367.296V352.456Z" fill="#EBEBEB"/>
<path d="M461.067 340.265H408.205V340.519H461.067V340.265Z" fill="#EBEBEB"/>
<path d="M84.4332 341.968H58.174V342.222H84.4332V341.968Z" fill="#EBEBEB"/>
<path d="M122.968 341.968H94.3025V342.222H122.968V341.968Z" fill="#EBEBEB"/>
<path d="M217.47 346.257H145.79V346.511H217.47V346.257Z" fill="#EBEBEB"/>
<path d="M262.814 288.026H48.6926C47.0152 288.023 45.4075 287.411 44.2224 286.323C43.0373 285.235 42.3717 283.761 42.3717 282.224V6.42532C42.3863 4.89715 43.0584 3.43595 44.2419 2.35914C45.4254 1.28232 47.0247 0.676843 48.6926 0.674225H262.814C264.493 0.674225 266.104 1.2855 267.291 2.37357C268.479 3.46163 269.146 4.93737 269.146 6.47612V282.224C269.146 283.763 268.479 285.239 267.291 286.327C266.104 287.415 264.493 288.026 262.814 288.026ZM48.6926 0.877445C47.0887 0.880137 45.5515 1.46583 44.4184 2.50597C43.2853 3.5461 42.649 4.95569 42.649 6.42532V282.224C42.649 283.694 43.2853 285.103 44.4184 286.143C45.5515 287.183 47.0887 287.77 48.6926 287.772H262.814C264.419 287.77 265.957 287.184 267.092 286.144C268.227 285.104 268.866 283.695 268.869 282.224V6.42532C268.866 4.95476 268.227 3.5452 267.092 2.50535C265.957 1.4655 264.419 0.880131 262.814 0.877445H48.6926Z" fill="#EBEBEB"/>
<path d="M502.685 288.026H288.552C286.874 288.023 285.265 287.411 284.078 286.324C282.892 285.236 282.223 283.762 282.221 282.224V6.42532C282.238 4.89621 282.913 3.43503 284.098 2.3585C285.283 1.28196 286.884 0.676815 288.552 0.674225H502.685C504.351 0.679513 505.947 1.28617 507.128 2.3627C508.31 3.43923 508.98 4.8989 508.995 6.42532V282.224C508.995 283.759 508.331 285.232 507.148 286.319C505.965 287.407 504.36 288.021 502.685 288.026ZM288.552 0.877445C286.948 0.880131 285.409 1.4655 284.274 2.50535C283.14 3.5452 282.501 4.95476 282.498 6.42532V282.224C282.501 283.695 283.14 285.104 284.274 286.144C285.409 287.184 286.948 287.77 288.552 287.772H502.685C504.29 287.77 505.828 287.184 506.963 286.144C508.098 285.104 508.737 283.695 508.74 282.224V6.42532C508.737 4.95476 508.098 3.5452 506.963 2.50535C505.828 1.4655 504.29 0.880131 502.685 0.877445H288.552Z" fill="#EBEBEB"/>
<path d="M489.488 27.0938H314.312V333.344H489.488V27.0938Z" fill="#EBEBEB"/>
<path d="M476.459 37.0804H327.342V333.343H476.459V37.0804Z" fill="#F5F5F5"/>
<path d="M422.876 61.6486H380.948V72.2667H422.876V61.6486Z" fill="white"/>
<path d="M441.761 167.131H464.505C465.446 167.131 466.349 167.473 467.014 168.083C467.679 168.692 468.053 169.52 468.053 170.382C468.053 171.244 467.679 172.071 467.014 172.681C466.349 173.291 465.446 173.634 464.505 173.634H441.761C440.82 173.634 439.917 173.291 439.252 172.681C438.586 172.071 438.212 171.244 438.212 170.382C438.212 169.52 438.586 168.692 439.252 168.083C439.917 167.473 440.82 167.131 441.761 167.131Z" fill="white"/>
<path d="M194.549 59.6794H78.046V145.713H194.549V59.6794Z" fill="#EBEBEB"/>
<path d="M188.284 139.979V65.4084H84.2891V139.979H188.284Z" fill="#FAFAFA"/>
<path d="M176.163 103.674V100.108H96.4209V103.674H176.163Z" fill="#E0E0E0"/>
<path d="M176.163 111.793V108.227H96.4209V111.793H176.163Z" fill="#E0E0E0"/>
<path d="M176.163 119.904V116.338H96.4209V119.904H176.163Z" fill="#E0E0E0"/>
<path d="M156.169 128.021V124.454H116.415V128.021H156.169Z" fill="#E0E0E0"/>
<path d="M96.4764 65.4102C96.4764 66.8746 96.1604 68.3246 95.5464 69.6767C94.9325 71.0287 94.0327 72.2563 92.899 73.2884C91.7653 74.3207 90.4199 75.1373 88.9405 75.6911C87.461 76.2451 85.8765 76.5255 84.2783 76.5161C82.0731 76.521 79.9092 75.969 78.024 74.9208V59.6794H94.6578C95.8233 61.4018 96.4522 63.3836 96.4764 65.4102Z" fill="#EBEBEB"/>
<path d="M194.549 59.6794V74.9208C192.231 76.1985 189.512 76.7288 186.827 76.4274C184.142 76.1258 181.644 75.0099 179.731 73.257C177.818 71.5042 176.6 69.2152 176.271 66.7547C175.942 64.2942 176.521 61.8036 177.915 59.6794H194.549Z" fill="#EBEBEB"/>
<path d="M96.4765 139.99C96.4804 142.006 95.8821 143.985 94.7466 145.711H78.1128V130.47C79.9526 129.46 82.0515 128.915 84.1957 128.892C86.3399 128.867 88.4528 129.364 90.3192 130.332C92.1855 131.3 93.7386 132.704 94.8202 134.399C95.9018 136.096 96.4733 138.025 96.4765 139.99Z" fill="#EBEBEB"/>
<path d="M194.549 130.459V145.701H177.915C176.771 143.977 176.168 141.998 176.174 139.98C176.176 138.012 176.748 136.081 177.831 134.381C178.913 132.683 180.469 131.277 182.338 130.308C184.206 129.339 186.322 128.842 188.469 128.866C190.617 128.891 192.718 129.437 194.56 130.449L194.549 130.459Z" fill="#EBEBEB"/>
<path d="M146.487 85.0955C147.4 79.9385 143.578 75.0793 137.95 74.2421C132.322 73.405 127.019 76.907 126.106 82.064C125.192 87.2211 129.014 92.0803 134.642 92.9177C140.27 93.7542 145.573 90.2525 146.487 85.0955Z" fill="#E0E0E0"/>
<path d="M288.696 211.158H58.174V218.758H288.696V211.158Z" fill="#EBEBEB"/>
<path d="M286.7 218.758H211.803V333.343H286.7V218.758Z" fill="#F5F5F5"/>
<path d="M135.921 218.758H61.0242V333.343H135.921V218.758Z" fill="#F5F5F5"/>
<path d="M63.5858 218.758H61.0242V333.343H63.5858V218.758Z" fill="#EBEBEB"/>
<path d="M214.365 218.758H211.803V333.343H214.365V218.758Z" fill="#EBEBEB"/>
<path d="M100.357 192.836H86.5841L87.693 211.157H99.248L100.357 192.836Z" fill="#F0F0F0"/>
<path d="M219.932 203.212H147.975V211.158H219.932V203.212Z" fill="#F0F0F0"/>
<path d="M219.943 204.148H186.764V210.235H219.943V204.148Z" fill="#FAFAFA"/>
<path d="M277.23 379.229C395.976 379.229 492.239 374.079 492.239 367.727C492.239 361.374 395.976 356.224 277.23 356.224C158.484 356.224 62.2217 361.374 62.2217 367.727C62.2217 374.079 158.484 379.229 277.23 379.229Z" fill="#F5F5F5"/>
<path d="M377.82 296.579C397.222 296.579 412.951 282.168 412.951 264.39C412.951 246.612 397.222 232.2 377.82 232.2C358.418 232.2 342.689 246.612 342.689 264.39C342.689 282.168 358.418 296.579 377.82 296.579Z" fill="white"/>
<path d="M377.82 296.977C370.786 296.979 363.909 295.069 358.059 291.489C352.209 287.91 347.649 282.822 344.956 276.867C342.263 270.913 341.557 264.361 342.928 258.039C344.299 251.718 347.685 245.911 352.658 241.352C357.631 236.794 363.968 233.689 370.867 232.431C377.765 231.173 384.917 231.818 391.416 234.283C397.914 236.75 403.469 240.926 407.378 246.285C411.286 251.644 413.372 257.945 413.372 264.39C413.363 273.028 409.615 281.31 402.95 287.42C396.285 293.528 387.247 296.966 377.82 296.977ZM377.82 232.607C370.957 232.607 364.248 234.471 358.541 237.965C352.835 241.459 348.388 246.426 345.762 252.236C343.136 258.046 342.449 264.439 343.789 270.607C345.129 276.774 348.435 282.439 353.288 286.885C358.142 291.331 364.326 294.358 371.057 295.584C377.789 296.81 384.766 296.179 391.106 293.771C397.446 291.363 402.864 287.286 406.676 282.056C410.487 276.827 412.52 270.679 412.518 264.39C412.509 255.962 408.85 247.88 402.345 241.922C395.839 235.962 387.019 232.612 377.82 232.607Z" fill="#018762"/>
<path d="M383.475 246.141H372.164V282.639H383.475V246.141Z" fill="#018762"/>
<path d="M397.736 269.583V259.219H357.904V269.583H397.736Z" fill="#018762"/>
<path d="M139.847 21.0671L139.093 20.3254C144.226 15.8789 150.74 13.0031 157.734 12.0949L157.889 13.1111C151.121 13.9857 144.816 16.7659 139.847 21.0671Z" fill="#018762"/>
<path d="M131.641 32.1727L130.609 31.807C131.729 29.2185 133.221 26.7786 135.045 24.5521L135.932 25.1616C134.173 27.3164 132.73 29.6737 131.641 32.1727Z" fill="#018762"/>
<path d="M162.579 71.0991C179.385 71.0991 193.008 58.6162 193.008 43.2175C193.008 27.8189 179.385 15.3359 162.579 15.3359C145.774 15.3359 132.151 27.8189 132.151 43.2175C132.151 58.6162 145.774 71.0991 162.579 71.0991Z" fill="#018762"/>
<path d="M180.754 30.6579C179.582 29.5431 178.18 28.6537 176.628 28.0415C175.077 27.4293 173.408 27.1066 171.718 27.0925C170.029 27.0782 168.354 27.3728 166.79 27.9589C165.227 28.5449 163.807 29.4106 162.612 30.5055C161.419 29.4109 160 28.5454 158.437 27.9594C156.875 27.3736 155.2 27.0791 153.512 27.0933C151.824 27.1075 150.156 27.43 148.605 28.0422C147.054 28.6542 145.653 29.5435 144.482 30.6579C142.187 32.9325 140.951 35.9373 141.035 39.0339C141.12 42.1304 142.52 45.0746 144.936 47.2407L159.352 60.4498C159.785 60.8462 160.298 61.1606 160.863 61.375C161.428 61.5896 162.034 61.7 162.646 61.7C163.257 61.7 163.863 61.5896 164.428 61.375C164.993 61.1606 165.507 60.8462 165.939 60.4498L180.355 47.2407C182.764 45.0679 184.153 42.12 184.228 39.0235C184.303 35.927 183.056 32.9259 180.754 30.6579Z" fill="white"/>
<path d="M162.58 55.4018C162.357 55.3948 162.141 55.3261 161.96 55.2045C161.78 55.0831 161.645 54.9145 161.571 54.721L155.15 37.5185L152.467 44.7125C152.39 44.9124 152.248 45.0855 152.059 45.2075C151.87 45.3296 151.644 45.3946 151.413 45.3933H140.668C140.374 45.3933 140.092 45.2863 139.884 45.0957C139.676 44.9051 139.559 44.6466 139.559 44.3771C139.559 44.1076 139.676 43.8492 139.884 43.6587C140.092 43.4681 140.374 43.3611 140.668 43.3611H150.648L154.13 34.0435C154.205 33.8438 154.347 33.6707 154.535 33.5481C154.723 33.4256 154.947 33.3597 155.178 33.3597C155.409 33.3597 155.633 33.4256 155.821 33.5481C156.009 33.6707 156.15 33.8438 156.226 34.0435L162.757 51.5508L169.1 37.864C169.181 37.6895 169.312 37.539 169.481 37.4295C169.649 37.32 169.848 37.2558 170.054 37.2442C170.262 37.2333 170.469 37.276 170.651 37.3677C170.833 37.4593 170.984 37.5961 171.085 37.7624L174.434 43.3509H184.537C184.831 43.3509 185.113 43.458 185.321 43.6486C185.529 43.8391 185.646 44.0975 185.646 44.367C185.646 44.6365 185.529 44.8949 185.321 45.0855C185.113 45.276 184.831 45.3831 184.537 45.3831H173.791C173.593 45.3846 173.398 45.3373 173.226 45.2462C173.054 45.155 172.913 45.0233 172.815 44.8649L170.187 40.5566L163.6 54.782C163.515 54.9656 163.373 55.1223 163.192 55.2325C163.01 55.3428 162.798 55.4017 162.58 55.4018Z" fill="#018762"/>
<path d="M331.413 332.123H215.675C213.789 332.143 211.919 331.802 210.185 331.123C208.45 330.445 206.889 329.443 205.6 328.181C204.311 326.92 203.322 325.427 202.697 323.797C202.072 322.165 201.824 320.434 201.968 318.711L220.676 64.6872C221.003 61.0593 222.79 57.6723 225.689 55.1842C228.589 52.6961 232.395 51.2847 236.367 51.2238H352.127C354.018 51.2041 355.893 51.5459 357.631 52.2277C359.37 52.9094 360.934 53.9159 362.224 55.183C363.514 56.45 364.501 57.9497 365.123 59.5862C365.744 61.2227 365.986 62.9601 365.833 64.6872L347.093 318.711C346.755 322.329 344.965 325.703 342.068 328.181C339.172 330.659 335.375 332.063 331.413 332.123Z" fill="#263238"/>
<path d="M357.073 154.674H354.156C353.628 154.68 353.104 154.585 352.619 154.394C352.133 154.204 351.697 153.923 351.336 153.569C350.976 153.215 350.701 152.796 350.527 152.339C350.354 151.881 350.287 151.397 350.33 150.914L353.912 102.355C353.995 101.34 354.492 100.39 355.303 99.693C356.114 98.9971 357.181 98.6053 358.292 98.5953H361.209C361.737 98.5898 362.261 98.6848 362.746 98.8747C363.232 99.0656 363.669 99.3469 364.029 99.7003C364.389 100.055 364.664 100.473 364.838 100.93C365.011 101.387 365.078 101.873 365.035 102.355L361.453 150.914C361.37 151.93 360.873 152.88 360.062 153.576C359.251 154.272 358.184 154.664 357.073 154.674Z" fill="#263238"/>
<path d="M218.99 122.281H216.085C215.655 122.286 215.229 122.21 214.833 122.056C214.437 121.903 214.08 121.675 213.785 121.389C213.49 121.102 213.263 120.763 213.119 120.391C212.975 120.021 212.916 119.626 212.947 119.233L214.244 101.695C214.326 100.872 214.737 100.106 215.398 99.5423C216.059 98.9798 216.924 98.661 217.826 98.6473H220.742C221.171 98.6446 221.595 98.7231 221.989 98.8784C222.383 99.0327 222.738 99.2601 223.031 99.5469C223.324 99.8327 223.55 100.172 223.695 100.54C223.839 100.91 223.898 101.304 223.87 101.695L222.572 119.233C222.493 120.057 222.082 120.825 221.421 121.388C220.759 121.951 219.893 122.269 218.99 122.281Z" fill="#018762"/>
<path d="M216.684 153.597H213.767C213.339 153.601 212.913 153.523 212.519 153.369C212.124 153.215 211.769 152.987 211.475 152.701C211.181 152.414 210.955 152.075 210.812 151.705C210.668 151.334 210.61 150.941 210.64 150.549L211.938 133.011C212.02 132.188 212.431 131.421 213.092 130.858C213.753 130.295 214.617 129.977 215.52 129.963H218.458C218.887 129.96 219.311 130.039 219.705 130.194C220.099 130.348 220.453 130.576 220.747 130.863C221.04 131.148 221.266 131.487 221.411 131.856C221.555 132.226 221.614 132.62 221.585 133.011L220.288 150.549C220.208 151.376 219.795 152.147 219.128 152.711C218.462 153.274 217.591 153.59 216.684 153.597Z" fill="#018762"/>
<path d="M328.961 332.125H213.223C211.337 332.144 209.468 331.804 207.733 331.125C205.999 330.447 204.437 329.445 203.148 328.184C201.859 326.922 200.871 325.428 200.246 323.798C199.62 322.168 199.372 320.436 199.517 318.713L218.236 64.6893C218.574 61.0602 220.373 57.676 223.284 55.1951C226.194 52.7142 230.008 51.314 233.982 51.2667H349.676C351.563 51.2473 353.433 51.5881 355.169 52.2674C356.904 52.9466 358.466 53.9495 359.755 55.212C361.044 56.4746 362.033 57.9692 362.657 59.6009C363.282 61.2325 363.529 62.9654 363.382 64.6893L344.653 318.713C344.315 322.333 342.523 325.709 339.624 328.186C336.725 330.665 332.925 332.069 328.961 332.125Z" fill="#018762"/>
<path opacity="0.3" d="M200.737 315.867L219.012 67.9805H362.129L343.854 315.867H200.737Z" fill="white"/>
<path d="M238.208 32.2651C231.377 34.7139 209.85 48.8999 219.971 70.3334C223.285 76.6166 241.202 73.8492 242.688 70.3334C244.174 66.8177 247.667 28.8713 238.208 32.2651Z" fill="#263238"/>
<path opacity="0.1" d="M257.236 315.867L308.313 67.9805H340.372L289.295 315.867H257.236Z" fill="white"/>
<path opacity="0.1" d="M233.018 315.867L284.095 67.9805H300.34L249.264 315.867H233.018Z" fill="white"/>
<path d="M277.386 57.4946H305.298C305.53 57.491 305.762 57.5322 305.976 57.6156C306.191 57.6991 306.384 57.8229 306.543 57.9791C306.701 58.1352 306.823 58.3202 306.899 58.5221C306.975 58.7239 307.003 58.9382 306.983 59.1509C306.945 59.5985 306.726 60.0171 306.369 60.3251C306.013 60.6331 305.544 60.8086 305.054 60.8172H277.142C276.909 60.8194 276.677 60.7769 276.463 60.6923C276.248 60.6077 276.055 60.4829 275.897 60.326C275.738 60.169 275.617 59.9835 275.541 59.7811C275.465 59.5787 275.436 59.364 275.456 59.1509C275.495 58.7041 275.714 58.2868 276.071 57.9804C276.428 57.6741 276.897 57.5008 277.386 57.4946Z" fill="white"/>
<path d="M271.575 356.56L261.794 357.414L258.268 336.737L268.048 335.873L271.575 356.56Z" fill="#895A30"/>
<path d="M260.674 353.036L270.92 350.12C271.097 350.064 271.291 350.073 271.46 350.145C271.63 350.217 271.762 350.347 271.83 350.507L275.157 357.954C275.239 358.154 275.276 358.367 275.264 358.581C275.252 358.793 275.193 359.002 275.088 359.193C274.984 359.384 274.838 359.553 274.659 359.69C274.48 359.826 274.271 359.928 274.048 359.987C270.344 361.002 266.817 361.236 262.348 363.034C257.125 365.067 254.941 367.791 249.319 367.791C245.293 367.791 244.384 364.407 246.092 363.939C253.854 361.785 252.834 360.017 258.467 354.459C259.053 353.814 259.814 353.324 260.674 353.036Z" fill="#263238"/>
<path opacity="0.2" d="M258.268 336.737L260.086 347.406L269.878 346.542L268.06 335.873L258.268 336.737Z" fill="black"/>
<path d="M265.343 75.4594C252.513 74.0775 239.749 75.0022 226.941 77.2782C224.807 77.6579 222.86 78.6504 221.382 80.1119C219.905 81.5734 218.974 83.428 218.724 85.407C217.338 96.6446 215.752 121.834 221.94 159.409L274.369 155.344C274.469 148.527 269.18 117.464 273.549 85.2343C273.728 84.0965 273.656 82.9374 273.338 81.8256C273.02 80.7136 272.462 79.6713 271.697 78.7602C270.932 77.8491 269.976 77.0876 268.884 76.5207C267.793 75.9538 266.589 75.593 265.343 75.4594Z" fill="white"/>
<path d="M234.815 85.0939L236.689 88.5283C236.776 88.7015 236.915 88.8487 237.09 88.9529C237.264 89.0572 237.467 89.1142 237.676 89.1176L239.705 89.2192C240.067 89.2336 240.424 89.1331 240.714 88.9347L244.207 86.5469L239.894 83.6713L234.815 85.0939Z" fill="#263238"/>
<path d="M239.772 88.2314C239.032 87.9174 238.194 87.8561 237.41 88.0587C235.757 93.3935 233.95 108.706 233.761 115.493C238.774 128.875 240.415 130.227 240.415 130.227L242.954 114.121C242.954 114.121 240.104 97.651 239.772 88.2314Z" fill="#263238"/>
<path d="M254.243 52.2915C253.045 58.9164 252.025 71.018 257.214 75.2958C253.411 78.9538 248.432 83.1909 239.893 83.6685C231.354 84.146 232.674 78.7303 234.836 75.8343C242.81 73.8835 242.421 68.4372 240.858 63.3465L254.243 52.2915Z" fill="#895A30"/>
<path d="M259.388 74.7173C258.783 74.4784 258.156 74.2913 257.514 74.1585C257.357 74.1205 257.19 74.1306 257.04 74.1875C256.89 74.2444 256.764 74.3448 256.682 74.4735C255.861 75.7538 253.355 81.4744 239.893 83.6691C242.111 84.8682 245.049 88.5871 246.314 90.3754C250.35 88.455 260.852 82.7141 259.854 75.2864C259.833 75.1636 259.78 75.0475 259.699 74.9482C259.617 74.8489 259.511 74.7697 259.388 74.7173Z" fill="#F5F5F5"/>
<path d="M234.914 76.1412C234.942 76.0256 234.939 75.9053 234.904 75.7912C234.868 75.6773 234.803 75.5731 234.712 75.4883C234.622 75.4035 234.51 75.3407 234.386 75.3057C234.263 75.2706 234.132 75.2644 234.005 75.2877C233.539 75.3705 233.079 75.4826 232.63 75.6229C232.526 75.6602 232.429 75.7116 232.341 75.7753C231.31 76.6492 225.688 84.087 230.955 90.1023C232.064 88.4663 235.89 84.7576 239.893 83.6704C236.101 82.1056 234.238 79.1895 234.914 76.1412Z" fill="#F5F5F5"/>
<path opacity="0.2" d="M248.787 56.8059L240.869 63.3495C241.251 64.5314 241.518 65.7419 241.667 66.9668C244.728 66.4892 248.842 63.3089 249.064 60.3623C249.214 59.1713 249.12 57.9652 248.787 56.8059Z" fill="black"/>
<path d="M259.998 43.4723C258.102 52.3224 257.47 57.5757 251.948 61.6502C243.62 67.7468 232.342 62.4834 231.344 53.3589C230.446 45.1387 233.695 32.0209 243.642 29.4603C245.811 28.8751 248.109 28.8187 250.31 29.2965C252.51 29.7744 254.536 30.7701 256.188 32.1851C257.84 33.6002 259.06 35.3857 259.729 37.3653C260.397 39.3448 260.49 41.4498 259.998 43.4723Z" fill="#895A30"/>
<path d="M256.858 71.1582C248.729 71.5545 253.189 46.9683 254.664 44.5399C256.139 42.1114 253.134 38.0978 255.096 36.0148C251.592 37.2951 247.9 36.2383 243.209 33.251C239.572 30.9241 235.014 40.2215 230.578 35.5576C226.386 31.1578 230.279 24.5227 240.348 23.4559C250.417 22.389 253.934 23.4557 258.856 28.3331C265.465 27.7539 263.169 32.743 261.872 33.7591C261.872 20.4599 325.683 61.2658 256.858 71.1582Z" fill="#263238"/>
<path d="M239.528 52.9238C240.411 53.064 241.317 53.039 242.189 52.8504C243.062 52.6618 243.884 52.3135 244.607 51.8265C244.628 51.8075 244.646 51.7846 244.658 51.7593C244.669 51.734 244.676 51.7067 244.676 51.6792C244.676 51.6516 244.669 51.6243 244.658 51.599C244.646 51.5736 244.628 51.5508 244.607 51.5318C244.563 51.4939 244.506 51.4728 244.446 51.4728C244.386 51.4728 244.328 51.4939 244.285 51.5318C243.476 52.0571 242.545 52.403 241.566 52.5423C240.586 52.6816 239.585 52.6105 238.641 52.3345C238.58 52.3207 238.517 52.3277 238.462 52.3538C238.406 52.38 238.364 52.4237 238.341 52.4768C238.324 52.5307 238.33 52.5887 238.36 52.6381C238.389 52.6876 238.438 52.7245 238.496 52.741C238.834 52.83 239.179 52.8912 239.528 52.9238Z" fill="#263238"/>
<path d="M261.961 53.5109C260.442 55.3039 258.216 56.4788 255.762 56.7828C252.535 57.1689 251.459 54.4152 252.812 51.8445C254.043 49.5278 257.248 46.5405 260.22 47.3432C263.192 48.1459 263.824 51.2755 261.961 53.5109Z" fill="#895A30"/>
<path d="M258.756 245.932C259.144 219.402 262.848 156.211 262.848 156.211L221.973 159.371C221.973 159.371 230.102 224.493 235.003 251.562C240.104 279.697 255.751 345.611 255.751 345.611L272.385 344.31C272.385 344.31 266.308 266.447 258.756 245.932Z" fill="#263238"/>
<path d="M254.753 346.025L274.48 344.49L273.704 338.658L253.145 339.918L254.753 346.025Z" fill="#018762"/>
<path d="M245.427 44.0023C245.327 44.7237 244.817 45.2724 244.318 45.2216C243.819 45.1707 243.475 44.5408 243.586 43.8092C243.697 43.0776 244.196 42.5391 244.695 42.5899C245.194 42.6407 245.538 43.2808 245.427 44.0023Z" fill="#263238"/>
<path d="M236.378 43.3499C236.278 44.0815 235.768 44.6201 235.269 44.5693C234.77 44.5184 234.426 43.8885 234.537 43.167C234.648 42.4456 235.147 41.8969 235.646 41.9478C236.145 41.9985 236.489 42.5878 236.378 43.3499Z" fill="#263238"/>
<path d="M238.929 44.2061C237.593 46.0864 235.989 47.795 234.16 49.2866C235.336 50.4145 237.764 50.1097 237.764 50.1097L238.929 44.2061Z" fill="#77421A"/>
<path opacity="0.4" d="M230.656 43.5337C230.49 44.692 231.765 45.6573 233.528 45.8606C235.291 46.0638 236.921 45.1798 237.077 44.0214" fill="#018762"/>
<path opacity="0.4" d="M241.135 44.611C240.891 45.7592 242.122 46.7957 243.852 47.1005C245.582 47.4053 247.279 46.5925 247.512 45.4544" fill="#018762"/>
<path d="M244.539 47.4158C244.34 47.426 244.14 47.426 243.941 47.4158C243.088 47.3224 242.287 46.9927 241.645 46.4708C241.365 46.2514 241.146 45.9736 241.007 45.6606C240.868 45.3476 240.813 45.0088 240.847 44.6724C240.284 44.4478 239.684 44.3105 239.072 44.2659C238.457 44.1253 237.814 44.1253 237.198 44.2659C237.043 45.5055 235.358 46.3591 233.472 46.1457C232.62 46.0603 231.817 45.7336 231.177 45.2109C230.898 44.9904 230.68 44.7123 230.542 44.3997C230.403 44.087 230.347 43.7487 230.379 43.4124L230.911 43.4734C230.888 43.7332 230.934 43.9941 231.044 44.2345C231.154 44.4749 231.325 44.6877 231.543 44.8553C232.102 45.3058 232.799 45.5863 233.539 45.658C235.136 45.851 236.555 45.1703 236.699 44.1541C236.777 43.5852 238.063 43.6258 239.128 43.7478C240.193 43.8697 241.457 44.144 241.346 44.7029C241.322 44.9628 241.368 45.224 241.478 45.4645C241.588 45.705 241.759 45.9178 241.978 46.0847C242.543 46.5293 243.238 46.8123 243.977 46.899C244.716 46.9856 245.467 46.8722 246.136 46.5725C246.395 46.4623 246.62 46.2968 246.794 46.0898C246.968 45.8829 247.084 45.6407 247.134 45.3836V45.1398L260.818 46.7554L260.752 47.2431L247.578 45.6885C247.482 45.9713 247.325 46.2334 247.115 46.4587C246.905 46.684 246.648 46.8679 246.358 46.9992C245.798 47.271 245.174 47.414 244.539 47.4158Z" fill="#263238"/>
<path d="M248.909 40.8122C248.987 40.8123 249.065 40.7912 249.13 40.7512C249.238 40.6937 249.317 40.5999 249.35 40.4897C249.383 40.3796 249.368 40.2618 249.308 40.1618C248.964 39.5709 248.466 39.0669 247.859 38.6946C247.251 38.3223 246.553 38.0934 245.826 38.0281C245.701 38.0225 245.579 38.062 245.486 38.1379C245.392 38.2139 245.335 38.3204 245.327 38.4346C245.321 38.5461 245.362 38.6554 245.443 38.7389C245.524 38.8226 245.638 38.8737 245.759 38.8816C246.335 38.9435 246.885 39.1332 247.362 39.4342C247.84 39.7353 248.23 40.1385 248.498 40.609C248.54 40.6736 248.601 40.7267 248.673 40.7625C248.745 40.7982 248.826 40.8154 248.909 40.8122Z" fill="#263238"/>
<path d="M233.451 39.6617C233.528 39.6686 233.605 39.6583 233.676 39.6317C233.748 39.6052 233.811 39.5632 233.861 39.5093C234.22 39.079 234.683 38.7317 235.215 38.4953C235.746 38.2589 236.331 38.1398 236.922 38.1477C236.983 38.1533 237.045 38.1477 237.104 38.1313C237.162 38.1149 237.217 38.088 237.265 38.0521C237.312 38.0162 237.351 37.972 237.38 37.9221C237.409 37.8723 237.426 37.8178 237.432 37.7616C237.44 37.7068 237.435 37.6512 237.419 37.598C237.403 37.5446 237.376 37.4948 237.339 37.4514C237.302 37.4078 237.256 37.3716 237.203 37.3445C237.15 37.3176 237.093 37.3004 237.033 37.2942C236.288 37.2763 235.549 37.4187 234.875 37.7098C234.201 38.001 233.61 38.4328 233.151 38.9707C233.072 39.0571 233.034 39.1686 233.044 39.2809C233.055 39.3933 233.113 39.4973 233.207 39.5703C233.279 39.6179 233.363 39.6493 233.451 39.6617Z" fill="#263238"/>
<path d="M292.811 241.651C284.328 201.698 282.42 170.454 274.369 155.283L234.77 159.348C234.77 159.348 258.357 218.881 269.878 244.293C281.844 270.712 305.464 315.847 305.464 315.847H325.247C325.247 315.847 306.783 259.849 292.811 241.651Z" fill="#263238"/>
<path d="M167.292 90.4069L163.012 87.9276C162.317 87.5175 161.488 87.3409 160.667 87.428C159.846 87.5151 159.084 87.8605 158.51 88.4053L155.604 91.2096C155.291 91.5123 155.049 91.8702 154.894 92.262C154.738 92.6538 154.671 93.0711 154.698 93.4867C154.726 93.9031 154.845 94.3095 155.051 94.6821C155.256 95.0538 155.543 95.3834 155.893 95.6501L157.966 97.2757C159.77 98.6766 161.874 99.7149 164.143 100.324L170.408 102.021L174.522 97.9569C175.775 93.7195 167.292 90.4069 167.292 90.4069Z" fill="#895A30"/>
<path d="M230.656 88.5082C229.103 91.9835 227.584 95.2145 225.932 98.5167C224.28 101.819 222.605 105.081 220.753 108.322C218.901 111.563 216.927 114.784 214.687 118.015C213.578 119.621 212.348 121.226 210.95 122.842C209.448 124.623 207.738 126.249 205.849 127.689C204.602 128.622 203.227 129.401 201.757 130.006C201.292 130.168 200.859 130.331 200.349 130.473L199.573 130.666C199.182 130.754 198.786 130.819 198.386 130.859C197.034 130.999 195.666 130.909 194.35 130.595C192.704 130.173 191.14 129.518 189.715 128.654C188.647 128.043 187.628 127.365 186.665 126.621C183.465 124.062 180.515 121.25 177.849 118.219C175.265 115.374 172.826 112.518 170.486 109.602C168.146 106.687 165.895 103.821 163.588 100.762L175.853 93.5077C179.723 99.2318 184.006 104.714 188.672 109.918C190.817 112.328 193.18 114.567 195.736 116.613C196.231 116.984 196.753 117.324 197.3 117.63C197.71 117.884 198.12 117.985 197.832 117.894C197.442 117.795 197.034 117.775 196.634 117.833C196.473 117.846 196.313 117.874 196.157 117.914H196.069C196.013 117.914 196.013 117.914 196.002 117.914C196.254 117.763 196.495 117.597 196.723 117.416C197.735 116.574 198.653 115.642 199.462 114.632C200.404 113.474 201.347 112.173 202.245 110.822C204.081 108.012 205.754 105.116 207.258 102.144C208.81 99.0957 210.307 96.0474 211.693 92.8775C213.079 89.7072 214.399 86.4861 215.519 83.4073L230.656 88.5082Z" fill="#018762"/>
<g opacity="0.6">
<path opacity="0.6" d="M230.655 88.5063C229.103 91.9816 227.584 95.2127 225.931 98.5149C224.279 101.817 222.604 105.079 220.753 108.32C218.901 111.561 216.927 114.782 214.687 118.013C213.578 119.619 212.347 121.224 210.95 122.84C209.448 124.621 207.737 126.247 205.849 127.687C204.602 128.621 203.226 129.4 201.757 130.004C201.291 130.167 200.859 130.329 200.348 130.471L199.572 130.664C199.182 130.752 198.785 130.817 198.386 130.857C197.034 130.997 195.666 130.907 194.349 130.593C192.703 130.171 191.139 129.516 189.714 128.652C188.646 128.042 187.627 127.363 186.664 126.62C183.464 124.06 180.514 121.248 177.848 118.217C175.265 115.372 172.825 112.517 170.485 109.601C168.145 106.685 165.894 103.819 163.588 100.761L175.852 93.5058C179.723 99.23 184.005 104.712 188.672 109.916C190.817 112.326 193.18 114.566 195.735 116.612C196.23 116.983 196.753 117.322 197.299 117.628C197.709 117.882 198.12 117.983 197.831 117.892C197.441 117.793 197.033 117.773 196.634 117.831C196.472 117.844 196.313 117.872 196.157 117.912H196.068C196.013 117.912 196.013 117.912 196.001 117.912C196.254 117.761 196.494 117.595 196.722 117.414C197.735 116.572 198.652 115.64 199.461 114.63C200.404 113.472 201.346 112.171 202.245 110.82C204.081 108.01 205.754 105.114 207.257 102.142C208.81 99.0939 210.307 96.0455 211.693 92.8757C213.079 89.7053 214.398 86.4844 215.518 83.4056L230.655 88.5063Z" fill="white"/>
</g>
<path d="M259.687 72.9093C255.529 80.0221 240.725 107.121 238.928 123.846C232.374 108.605 233.805 74.8907 233.805 74.8907C229.134 75.3079 224.552 76.3343 220.198 77.9391C218.795 78.4673 217.579 79.3411 216.685 80.4639C215.79 81.5866 215.252 82.9143 215.131 84.2998C213.854 101.744 214.456 119.262 216.927 136.599C221.529 169.418 225.798 220.456 225.798 220.456C225.798 220.456 262.448 219.054 290.726 213.588C287.277 188.5 275.478 146.454 275.367 135.196C275.234 120.706 275.6 92.378 276.099 80.5504C276.183 78.8805 275.612 77.2383 274.489 75.9208C273.366 74.6032 271.766 73.6972 269.978 73.3666C266.586 72.7906 263.124 72.6367 259.687 72.9093Z" fill="#018762"/>
<path opacity="0.7" d="M259.687 72.9094C255.529 80.0221 240.725 107.121 238.928 123.846C232.374 108.605 233.805 74.8909 233.805 74.8909C229.134 75.3079 224.552 76.3344 220.198 77.9392C218.795 78.4674 217.579 79.3413 216.685 80.464C215.79 81.5867 215.252 82.9144 215.131 84.2999C213.854 101.744 214.456 119.262 216.927 136.599C221.529 169.418 225.798 220.457 225.798 220.457C225.798 220.457 262.448 219.054 290.726 213.588C287.277 188.5 275.478 146.454 275.367 135.196C275.234 120.706 275.6 92.3679 276.099 80.5403C276.204 78.9213 275.682 77.3203 274.625 76.0192C273.568 74.7181 272.044 73.8004 270.322 73.4277C266.821 72.7989 263.241 72.6245 259.687 72.9094Z" fill="white"/>
<path d="M251.049 215.01C244.684 182.83 239.638 135.612 239.228 129.932H239.793C240.204 135.612 245.26 182.769 251.614 214.949L251.049 215.01Z" fill="white"/>
<path d="M247.878 157.764H214.078C213.395 157.735 212.741 157.505 212.213 157.108C211.686 156.71 211.313 156.166 211.15 155.558L199.85 107.426C199.768 107.163 199.754 106.887 199.811 106.618C199.868 106.35 199.994 106.097 200.178 105.882C200.362 105.666 200.599 105.495 200.87 105.38C201.141 105.265 201.437 105.211 201.736 105.221H235.524C236.209 105.247 236.866 105.476 237.396 105.874C237.926 106.272 238.3 106.816 238.463 107.426L249.763 155.558C249.846 155.821 249.859 156.098 249.802 156.366C249.745 156.635 249.62 156.887 249.436 157.102C249.252 157.318 249.014 157.49 248.744 157.605C248.473 157.72 248.176 157.774 247.878 157.764Z" fill="white"/>
<path d="M246.824 158.17H212.447C211.753 158.141 211.087 157.906 210.549 157.501C210.012 157.097 209.631 156.544 209.464 155.925L197.965 106.98C197.883 106.711 197.871 106.429 197.93 106.156C197.989 105.883 198.118 105.626 198.306 105.407C198.494 105.188 198.736 105.013 199.012 104.896C199.288 104.779 199.591 104.724 199.894 104.734H234.271C234.966 104.763 235.632 104.998 236.169 105.403C236.707 105.808 237.087 106.36 237.254 106.98L248.742 155.925C248.827 156.192 248.841 156.474 248.783 156.748C248.726 157.021 248.598 157.278 248.41 157.498C248.223 157.717 247.982 157.892 247.706 158.009C247.43 158.126 247.128 158.182 246.824 158.17Z" fill="#018762"/>
<path d="M250.761 130.552L242.211 130.257C241.183 130.225 240.159 130.391 239.206 130.745L234.77 132.371C234.354 132.522 233.975 132.748 233.657 133.037C233.338 133.325 233.087 133.669 232.917 134.049C232.747 134.428 232.663 134.835 232.669 135.245C232.675 135.655 232.771 136.06 232.951 136.435L234.726 139.951C235.084 140.632 235.687 141.181 236.434 141.503C237.182 141.825 238.027 141.901 238.829 141.719L243.719 140.601C243.719 140.601 252.901 139.931 253.233 135.521L250.761 130.552Z" fill="#895A30"/>
<path d="M274.369 77.268C276.487 80.3163 278.428 83.1004 280.335 86.0877C282.243 89.075 284.117 92.0319 285.88 95.1204C287.643 98.2099 289.318 101.4 290.837 104.814C291.626 106.603 292.3 108.431 292.855 110.291C293.57 112.559 293.899 114.913 293.831 117.272V117.668C293.835 117.736 293.835 117.803 293.831 117.871C293.831 118.237 293.72 118.602 293.642 118.969C293.565 119.335 293.465 119.619 293.354 119.985C293.243 120.35 293.121 120.544 292.999 120.828C292.575 121.707 292.031 122.534 291.38 123.287C290.474 124.325 289.444 125.265 288.308 126.092C286.564 127.35 284.71 128.475 282.764 129.454C279.341 131.169 275.816 132.71 272.207 134.068C268.714 135.43 265.232 136.669 261.728 137.838C258.224 139.006 254.775 140.134 251.126 141.251L246.901 128.449C250.228 127.615 253.621 126.589 256.937 125.553C260.253 124.516 263.591 123.358 266.74 122.149C269.831 120.979 272.845 119.645 275.767 118.156C277 117.529 278.175 116.812 279.282 116.012C279.573 115.81 279.834 115.574 280.058 115.31C279.963 115.409 279.888 115.523 279.836 115.646C279.836 115.738 279.781 115.799 279.725 115.91C279.682 116.03 279.648 116.152 279.626 116.275C279.579 116.432 279.549 116.592 279.537 116.753C279.537 116.814 279.537 116.824 279.537 116.804V116.733C279.46 115.769 279.255 114.817 278.927 113.898C278.484 112.568 277.958 111.262 277.352 109.986C275.997 107.174 274.464 104.436 272.761 101.786C271.032 99.0629 269.191 96.3405 267.217 93.6574C265.243 90.9751 263.225 88.3028 261.195 85.8642L274.369 77.268Z" fill="#018762"/>
<g opacity="0.7">
<path opacity="0.7" d="M274.37 77.268C276.488 80.3163 278.428 83.1004 280.336 86.0877C282.243 89.075 284.117 92.0319 285.88 95.1204C287.644 98.2099 289.318 101.4 290.837 104.814C291.626 106.603 292.3 108.431 292.855 110.291C293.57 112.559 293.9 114.913 293.831 117.272V117.668C293.835 117.736 293.835 117.803 293.831 117.871C293.831 118.237 293.72 118.602 293.643 118.969C293.565 119.335 293.465 119.619 293.354 119.985C293.244 120.35 293.122 120.544 293 120.828C292.576 121.707 292.032 122.534 291.381 123.287C290.475 124.325 289.444 125.265 288.309 126.092C286.565 127.35 284.71 128.475 282.764 129.454C279.341 131.169 275.817 132.71 272.207 134.068C268.714 135.43 265.232 136.669 261.728 137.838C258.224 139.006 254.775 140.134 251.127 141.251L246.902 128.449C250.229 127.615 253.622 126.589 256.938 125.553C260.253 124.516 263.591 123.358 266.74 122.149C269.831 120.979 272.845 119.645 275.767 118.156C277 117.529 278.176 116.812 279.282 116.012C279.573 115.81 279.834 115.574 280.059 115.31C279.963 115.409 279.888 115.523 279.837 115.646C279.837 115.738 279.781 115.799 279.726 115.91C279.682 116.03 279.649 116.152 279.626 116.275C279.579 116.432 279.55 116.592 279.537 116.753C279.537 116.814 279.537 116.824 279.537 116.804V116.733C279.46 115.769 279.255 114.817 278.927 113.898C278.484 112.568 277.958 111.262 277.353 109.986C275.997 107.174 274.464 104.436 272.762 101.786C271.032 99.0629 269.191 96.3405 267.217 93.6574C265.243 90.9751 263.225 88.3028 261.196 85.8642L274.37 77.268Z" fill="white"/>
</g>
<path d="M263.147 112.528C263.073 112.528 263.001 112.509 262.937 112.475C262.872 112.442 262.819 112.393 262.781 112.336C262.748 112.291 262.726 112.241 262.715 112.189C262.704 112.137 262.705 112.082 262.717 112.03C262.73 111.978 262.754 111.928 262.788 111.885C262.821 111.842 262.864 111.804 262.914 111.777L264.644 110.76C266.259 109.827 267.526 108.467 268.279 106.86C269.031 105.252 269.233 103.473 268.858 101.758L265.376 85.6021C265.121 84.3941 264.429 83.3002 263.411 82.4973C262.394 81.6945 261.111 81.2295 259.769 81.1778C258.428 81.1262 257.106 81.4906 256.019 82.2123C254.931 82.9341 254.141 83.9709 253.777 85.155L248.842 100.996C248.303 102.67 248.333 104.455 248.927 106.114C249.521 107.773 250.652 109.227 252.169 110.283L253.81 111.421C253.902 111.487 253.962 111.584 253.977 111.691C253.991 111.798 253.959 111.905 253.887 111.99C253.853 112.032 253.809 112.066 253.76 112.093C253.71 112.118 253.655 112.136 253.599 112.142C253.542 112.149 253.484 112.145 253.429 112.131C253.374 112.118 253.323 112.094 253.278 112.061L251.725 110.933C250.057 109.782 248.811 108.194 248.152 106.38C247.492 104.565 247.45 102.609 248.032 100.772L252.978 84.9314C253.403 83.5788 254.311 82.396 255.557 81.573C256.803 80.75 258.315 80.3345 259.85 80.3931C261.384 80.4516 262.853 80.981 264.02 81.8962C265.187 82.8112 265.985 84.0592 266.285 85.4395L269.767 101.605C270.178 103.479 269.958 105.424 269.137 107.18C268.315 108.936 266.93 110.423 265.165 111.442L263.424 112.457C263.386 112.486 263.341 112.507 263.294 112.519C263.246 112.531 263.196 112.535 263.147 112.528Z" fill="#263238"/>
<path d="M265.809 85.9357L253.356 85.4581C253.298 85.4555 253.24 85.4424 253.188 85.4195C253.135 85.3966 253.088 85.3645 253.048 85.3248C253.009 85.2852 252.979 85.2388 252.96 85.1885C252.94 85.1381 252.931 85.0847 252.934 85.0313C252.945 84.9253 252.999 84.8269 253.086 84.7555C253.172 84.6841 253.284 84.6447 253.4 84.6452L265.842 85.1227C265.9 85.1254 265.958 85.1384 266.01 85.1614C266.063 85.1842 266.11 85.2164 266.15 85.2561C266.189 85.2957 266.219 85.342 266.238 85.3924C266.258 85.4427 266.267 85.4962 266.264 85.5496C266.262 85.6025 266.249 85.6546 266.225 85.7029C266.202 85.7511 266.168 85.7946 266.125 85.8306C266.083 85.8666 266.033 85.8944 265.979 85.9124C265.924 85.9305 265.867 85.9383 265.809 85.9357Z" fill="#263238"/>
<path d="M259.754 81.1994C259.639 81.1969 259.53 81.1546 259.447 81.0811C259.365 81.0076 259.316 80.9083 259.311 80.8031C259.311 78.7709 258.623 75.245 256.549 74.4728C256.492 74.4552 256.439 74.427 256.394 74.3899C256.349 74.3528 256.313 74.3077 256.288 74.2573C256.262 74.2069 256.249 74.1523 256.247 74.0968C256.246 74.0413 256.257 73.9862 256.279 73.9348C256.302 73.8834 256.336 73.8368 256.379 73.7979C256.423 73.7589 256.474 73.7285 256.53 73.7085C256.587 73.6885 256.647 73.6792 256.708 73.6814C256.768 73.6835 256.827 73.6969 256.882 73.7209C259.954 74.8793 260.209 80.1832 260.209 80.8336C260.209 80.9406 260.164 81.0436 260.084 81.1212C260.003 81.1987 259.893 81.245 259.776 81.2502L259.754 81.1994Z" fill="#263238"/>
<path d="M221.662 95.009H221.574C221.459 94.9871 221.359 94.925 221.294 94.8355C221.23 94.746 221.207 94.6364 221.23 94.5314C222.694 87.856 228.748 77.3192 234.082 74.2099C234.131 74.1822 234.185 74.1636 234.242 74.1553C234.298 74.1469 234.356 74.1489 234.412 74.1612C234.467 74.1734 234.52 74.1958 234.566 74.2268C234.612 74.2578 234.651 74.297 234.681 74.342C234.713 74.3856 234.736 74.4347 234.746 74.4864C234.757 74.5381 234.756 74.5912 234.744 74.6427C234.731 74.6941 234.708 74.7426 234.674 74.7852C234.64 74.8279 234.597 74.8638 234.548 74.8907C229.391 77.878 223.514 88.1 222.095 94.6739C222.077 94.767 222.024 94.8519 221.945 94.9131C221.866 94.9743 221.766 95.0081 221.662 95.009Z" fill="#263238"/>
<path d="M225.3 96.0565C224.613 97.6729 223.082 98.6483 221.973 98.2309C220.865 97.8145 220.432 96.199 221.12 94.5433C221.807 92.8867 223.337 91.9515 224.446 92.3789C225.555 92.8054 225.999 94.441 225.3 96.0565Z" fill="white"/>
<path d="M254.575 111.797C254.575 112.549 254.065 113.149 253.522 113.128C252.979 113.107 252.557 112.477 252.59 111.716C252.624 110.953 253.101 110.354 253.644 110.384C254.187 110.415 254.609 111.034 254.575 111.797Z" fill="white"/>
<path d="M264.134 112.16C264.134 112.912 263.635 113.511 263.08 113.491C262.526 113.471 262.127 112.841 262.16 112.079C262.193 111.317 262.659 110.728 263.269 110.748C263.879 110.768 264.167 111.429 264.134 112.16Z" fill="white"/>
<path d="M452.185 98.0665L451.076 98.0053C451.261 95.8419 450.953 93.6675 450.171 91.6191C449.39 89.5704 448.152 87.6932 446.537 86.1063C444.922 84.5194 442.965 83.2574 440.789 82.4003C438.613 81.5433 436.267 81.11 433.899 81.1279V80.1117C436.419 80.0921 438.916 80.5527 441.231 81.464C443.547 82.3753 445.63 83.7176 447.35 85.4058C449.069 87.0939 450.387 89.091 451.219 91.2704C452.051 93.4501 452.38 95.7643 452.185 98.0665Z" fill="#018762"/>
<path d="M452.77 102.327L452.127 110.74L453.236 110.812L453.879 102.398L452.77 102.327Z" fill="#018762"/>
<path d="M433.899 83.6684H357.384C353.205 83.7313 349.202 85.2163 346.152 87.8343C343.102 90.4524 341.224 94.0163 340.883 97.8327L340.184 107.272C340.026 109.088 340.282 110.916 340.936 112.636C341.59 114.357 342.629 115.934 343.985 117.266C345.341 118.599 346.986 119.658 348.813 120.376C350.641 121.094 352.612 121.455 354.6 121.437H431.116L445.953 129.82L448.304 97.8327C448.465 96.0172 448.21 94.1908 447.557 92.4702C446.904 90.7492 445.867 89.1722 444.511 87.8394C443.156 86.5067 441.512 85.4474 439.685 84.7292C437.858 84.0111 435.887 83.6498 433.899 83.6684Z" fill="#018762"/>
<path d="M430.018 97.1917H359.147V99.5487H430.018V97.1917Z" fill="white"/>
<path d="M429.397 105.553H376.779V107.91H429.397V105.553Z" fill="white"/>
<path d="M318.793 134.167H396.994C399.028 134.147 401.043 134.515 402.912 135.25C404.781 135.983 406.463 137.065 407.849 138.428C409.236 139.79 410.298 141.403 410.966 143.163C411.635 144.922 411.896 146.79 411.732 148.647L411.022 158.3C410.671 162.2 408.75 165.841 405.634 168.517C402.517 171.193 398.426 172.711 394.156 172.779H315.943L299.509 181.365L301.927 148.647C302.276 144.745 304.195 141.103 307.313 138.427C310.43 135.751 314.522 134.232 318.793 134.167Z" fill="white"/>
<path opacity="0.15" d="M318.793 134.167H396.994C399.028 134.147 401.043 134.515 402.912 135.25C404.781 135.983 406.463 137.065 407.849 138.428C409.236 139.79 410.298 141.403 410.966 143.163C411.635 144.922 411.896 146.79 411.732 148.647L411.022 158.3C410.671 162.2 408.75 165.841 405.634 168.517C402.517 171.193 398.426 172.711 394.156 172.779H315.943L299.509 181.365L301.927 148.647C302.276 144.745 304.195 141.103 307.313 138.427C310.43 135.751 314.522 134.232 318.793 134.167Z" fill="#018762"/>
<path opacity="0.5" d="M393.024 147.996H320.545V150.414H393.024V147.996Z" fill="#018762"/>
<path opacity="0.5" d="M348.557 156.543H319.914V158.961H348.557V156.543Z" fill="#018762"/>
<path opacity="0.5" d="M373.874 156.543H355.576V158.961H373.874V156.543Z" fill="#018762"/>
</svg>
